<svg id="Capa_1" enable-background="new 0 0 512 512" height="512" viewBox="0 0 512 512" width="512" xmlns="http://www.w3.org/2000/svg"><g><path d="m504.5 258.5c4.143 0 7.5-3.357 7.5-7.5v-202.505c0-15.163-12.337-27.5-27.5-27.5h-348c-15.163 0-27.5 12.337-27.5 27.5v67.51h-15.5c-6.893 0-12.5 5.607-12.5 12.5v120.5h-9v-78.5c0-9.649-7.851-17.5-17.5-17.5h-11c-9.649 0-17.5 7.851-17.5 17.5v78.5h-8.5c-9.649 0-17.5 7.851-17.5 17.5v13c0 7.506 4.759 13.905 11.411 16.385l9.068 135.115h-2.979c-9.649 0-17.5 7.851-17.5 17.5v25c0 9.649 7.851 17.5 17.5 17.5h477c9.649 0 17.5-7.851 17.5-17.5v-25c0-9.649-7.851-17.5-17.5-17.5h-100.253s-.066-1.642-.066-2.489c0-19.539-15.896-35.436-35.436-35.436h-11.085l-6.924-21.534h143.764c15.163 0 27.5-12.337 27.5-27.5v-58.046c0-4.143-3.357-7.5-7.5-7.5s-7.5 3.357-7.5 7.5v29.676h-343.739l1.328-19.786c6.652-2.48 11.411-8.879 11.411-16.385v-13c0-9.649-7.851-17.5-17.5-17.5h-8.5v-53.005c0-4.143-3.357-7.5-7.5-7.5s-7.5 3.357-7.5 7.5v53.005h-29v-118h29v29.995c0 4.143 3.357 7.5 7.5 7.5s7.5-3.357 7.5-7.5v-32.495c0-6.893-5.607-12.5-12.5-12.5h-3.5v-67.51c0-6.893 5.607-12.5 12.5-12.5h348c6.893 0 12.5 5.607 12.5 12.5v202.505c0 4.143 3.357 7.5 7.5 7.5zm-463.5-54.495h16v13h-16zm2.5-36h11c1.379 0 2.5 1.121 2.5 2.5v18.5h-16v-18.5c0-1.379 1.121-2.5 2.5-2.5zm-2.5 64h16v17h-16zm456 216.5v25c0 1.379-1.121 2.5-2.5 2.5h-477c-1.379 0-2.5-1.121-2.5-2.5v-25c0-1.379 1.121-2.5 2.5-2.5h477c1.379 0 2.5 1.121 2.5 2.5zm-347.489-76.959h121.753l-6.924 21.534h-11.085c-19.539 0-35.436 15.896-35.436 35.436 0 .847.025 2.489.025 2.489h-72.323zm229.67 56.97c0 1.343-1.065 2.432-2.394 2.489h-141.574c-1.329-.057-2.394-1.147-2.394-2.489 0-11.269 9.167-20.436 20.436-20.436h16.529c.008 0 .017.002.025.002s.016-.002.025-.002h72.333c.008 0 .016.002.025.002s.017-.002.025-.002h16.529c11.268 0 20.435 9.167 20.435 20.436zm-47.277-35.436h-51.809l6.924-21.534h37.961zm165.096-62.404v13.37c0 6.893-5.607 12.5-12.5 12.5-93.905 0-240.596 0-333.982 0l1.736-25.87zm-346-64.171v13c0 1.379-1.121 2.5-2.5 2.5h-67.5c-4.143 0-7.5 3.357-7.5 7.5s3.357 7.5 7.5 7.5h58.479l-8.993 134h-94.972l-8.993-134h19.479c4.143 0 7.5-3.357 7.5-7.5s-3.357-7.5-7.5-7.5h-28.5c-1.379 0-2.5-1.121-2.5-2.5v-13c0-1.379 1.121-2.5 2.5-2.5h131c1.379 0 2.5 1.121 2.5 2.5z"/><path d="m466 224.005v-139c0-9.649-7.851-17.5-17.5-17.5h-125.5c-4.143 0-7.5 3.357-7.5 7.5s3.357 7.5 7.5 7.5h125.5c1.379 0 2.5 1.121 2.5 2.5v61.667h-186v-64.167h23c4.143 0 7.5-3.357 7.5-7.5s-3.357-7.5-7.5-7.5h-115.5c-9.649 0-17.5 7.851-17.5 17.5v139c0 9.649 7.851 17.5 17.5 17.5h276c9.649 0 17.5-7.851 17.5-17.5zm-15-62.333v62.333c0 1.379-1.121 2.5-2.5 2.5h-183.5v-64.833zm-278.5-79.167h77.5v64.167h-80v-61.667c0-1.379 1.121-2.5 2.5-2.5zm-2.5 141.5v-62.333h80v64.833h-77.5c-1.379 0-2.5-1.121-2.5-2.5z"/><path d="m304.498 110.005h.074l52-.5c4.142-.04 7.467-3.43 7.428-7.572-.04-4.117-3.39-7.428-7.498-7.428-.025 0-.05 0-.074 0l-52 .5c-4.142.04-7.467 3.43-7.428 7.572.04 4.117 3.39 7.428 7.498 7.428z"/><path d="m304.5 135.505h96c4.143 0 7.5-3.357 7.5-7.5s-3.357-7.5-7.5-7.5h-96c-4.143 0-7.5 3.357-7.5 7.5s3.357 7.5 7.5 7.5z"/><path d="m410.5 109.505c4.143 0 7.5-3.357 7.5-7.5s-3.357-7.5-7.5-7.5h-24c-4.143 0-7.5 3.357-7.5 7.5s3.357 7.5 7.5 7.5z"/><path d="m350.5 202.005h-46c-4.143 0-7.5 3.357-7.5 7.5s3.357 7.5 7.5 7.5h46c4.143 0 7.5-3.357 7.5-7.5s-3.357-7.5-7.5-7.5z"/><path d="m304.499 186.505h.036l106-.5c4.143-.02 7.484-3.394 7.465-7.535-.02-4.131-3.373-7.465-7.499-7.465-.012 0-.024 0-.036 0l-106 .5c-4.143.02-7.484 3.394-7.465 7.535.02 4.131 3.373 7.465 7.499 7.465z"/><path d="m210 137.505c12.406 0 22.5-10.094 22.5-22.5s-10.094-22.5-22.5-22.5-22.5 10.094-22.5 22.5 10.094 22.5 22.5 22.5zm0-30c4.136 0 7.5 3.364 7.5 7.5s-3.364 7.5-7.5 7.5-7.5-3.364-7.5-7.5 3.364-7.5 7.5-7.5z"/><path d="m210 171.505c-12.406 0-22.5 10.094-22.5 22.5s10.094 22.5 22.5 22.5 22.5-10.094 22.5-22.5-10.094-22.5-22.5-22.5zm0 30c-4.136 0-7.5-3.364-7.5-7.5s3.364-7.5 7.5-7.5 7.5 3.364 7.5 7.5-3.364 7.5-7.5 7.5z"/><path d="m279.5 256.005c-9.649 0-17.5 7.851-17.5 17.5v10c0 9.649 7.851 17.5 17.5 17.5h62c9.649 0 17.5-7.851 17.5-17.5v-10c0-9.649-7.851-17.5-17.5-17.5zm64.5 17.5v10c0 1.379-1.121 2.5-2.5 2.5h-62c-1.379 0-2.5-1.121-2.5-2.5v-10c0-1.379 1.121-2.5 2.5-2.5h62c1.379 0 2.5 1.121 2.5 2.5z"/></g></svg>