<?xml version="1.0" encoding="utf-8"?>
<!-- Generator: Adobe Illustrator 16.0.0, SVG Export Plug-In . SVG Version: 6.00 Build 0)  -->
<!DOCTYPE svg PUBLIC "-//W3C//DTD SVG 1.1//EN" "http://www.w3.org/Graphics/SVG/1.1/DTD/svg11.dtd">
<svg version="1.1" id="레이어_1" xmlns="http://www.w3.org/2000/svg" xmlns:xlink="http://www.w3.org/1999/xlink" x="0px"
	 y="0px" width="332.709px" height="129.595px" viewBox="0 0 332.709 129.595" enable-background="new 0 0 332.709 129.595"
	 xml:space="preserve">
<g>
	<path fill="#FFFFFF" d="M211.069,0.358c-0.183-0.154-0.394-0.27-0.625-0.324c-0.961-0.2-1.924,0.504-3.371,1.664L205.94,2.54
		c-3.971,2.118-6.995,12.035-7.679,16.11c-0.114,0.062-0.21,0.113-0.417,0.224c-2.46-4.208-6.903-8.124-11.553-8.719
		c1.838,7.053,8.045,28.348,16.303,26.5c4.193-0.933,12.951-18.59,13.042-28.32c0-0.134,0-0.251,0-0.375
		C215.577,2.826,213.19,0.98,211.069,0.358z"/>
	<path fill="#FFFFFF" d="M266.766,108.785c-10.356,0.427-13.787-0.115-23.938,3.208c-1.41,0.437-2.647,1.386-3.795,2.672
		c0.17,2.138-1.109,5.519,0.876,6.318c0.106,0.015,0.1,0.335,0.197,0.511c0.584,0.59,1.194,0.678,1.783,1.42
		c0.385,0.549,0.702-0.051,1.101,0.17c0.198,0.195,0.293,0.531,0.493,0.567c0.993,0.467,1.906,0.288,2.906,0.765
		c0.489,0.408,0.992,0.324,1.503,0.394c0.301-0.112,0.691,0.597,0.777,0.772c1.9,0.787,3.629,0.083,5.542,0.051
		c5.741-0.098,4.667-0.658,10.396-0.748c4.848-0.075,9.555,0.664,14.39,0.588c2.624-0.084,5.458,0,8.074-0.18
		c4.618-0.262,9.267,0.442,13.9,0.497c2.32-0.055,5.013,0.856,7.346,1.021c2.522,0.013,4.901-0.632,7.455-0.124
		c0.813,0.07,1.621-0.051,2.434,0.328c0.743,0.38,1.575,0.764,2.29,0.819c2.227,0.151,4.188-0.679,6.351-1.491
		c1.279-0.389,2.576-0.615,3.737-1.347c0.595-0.277,1.137-1.212,1.376-2.153c0.599-1.733,1.089-3.637,0.444-5.608
		c-0.109-0.007-0.404,0.136-0.51-0.036c-0.221-0.332-0.174-1.14-0.486-1.156c-0.936-0.381-1.842-0.465-2.756-0.68
		c-1.232-0.262-2.492-0.824-3.712-1.072C319.205,112.914,286.403,107.963,266.766,108.785z"/>
	<path fill="#FFFFFF" d="M166.526,112.581c1.046,0.227,2.229,0.2,2.803,0.895c0.557,0.54-0.561,1.44-0.498,2.145
		c-0.016,1.718,0.619,3.261,0.602,4.961c0.031,0.288-0.124,0.573-0.434,0.872c-0.305,0.428-0.772,0.885-1.258,1.174
		c-1.444,0.92-3.338,0.57-5.003,1.057c-2.132,0.648-4.503,0.877-6.675,1.113c-4.038,0.428-7.85-0.43-11.924-0.563
		c-1.546-0.072-3.21,0.126-4.529,0.605c-1.826,0.492-3.701,0.416-5.574,0.35c-9.704-0.344-19.217-0.553-28.883-0.477
		c-1.688,0.062-3.536,0.282-5.224,0.343c-7.771,0.438-15.514,0.297-23.281,0.508c-2.722,0.069-5.416,0.146-8.138,0.075
		c-1.52,0.026-3.048,0.071-4.392,0.102c-5.746,0.289-11.637,0.561-17.4,0.318c-2.196,0.036-4.563,0.045-6.776,0.062
		c-6.408,0.346-12.951,1.397-19.404,1.036c-4.761-0.254-9.216-1.346-13.583-3.586c-2.962-1.537-5.286-3.647-6.954-6.199
		c1.091-1.428,2.769-2.018,4.602-2.455c4.328-1.177,8.339-1.92,12.705-2.664c3.68-0.61,7.06-0.923,10.598-1.237
		c46.479-4.161,98.567-2.606,118.875-1.247C153.609,110.217,159.956,111.12,166.526,112.581z"/>
	<path fill="#FFFFFF" d="M250.382,69.141c0,0.266,0,0.266,0,0.531c0.411,1.064,1.23,1.329,2.062,2.122c0.83,0,1.867,0,2.689,0
		c0-0.536,0.623,0,0.623-0.536c0.613,0,1.539-0.257,1.982-1.051c0.218,0,0.218,0,0.437,0c0.448-0.801,1.105-1.339,2.003-1.339
		c1.104-1.327,2.217-2.652,3.32-3.979c0-0.539,0.221-1.068,0.66-1.336c0.672-2.387,1.104-5.053,2.218-7.435
		c0-0.804,0.44-1.879,0.224-2.672c0.217,0,0.436,0,0.436-0.266c-0.219-1.066,0.445-1.6,0.882-2.124c0.451,0,0.892,0,1.114-0.535
		c0-0.268,0-0.268,0-0.532c1.116,0,2.357,0.803,3.229,1.863c0.584,0,0.88,0,1.453,0c0,0.535,0.293,0.535,0.598,0.8
		c1.16,0,3.727-0.266,4.893,0.266c0,0.794,1.164,0.528,1.459,1.321c0.285,0.809,0.285,1.597,0.875,2.404
		c0,0.252,0,0.529-0.291,0.796c0.579,0.798,1.154,2.13,0.291,2.92c0.288,1.066,0,2.395,0.581,3.462
		c-0.581,0.529-0.293,1.327-0.293,1.86c0.575,1.061,0.575,2.394,0.88,3.725c1.164,1.33,0.859,2.924,1.744,4.262
		c0,0.527,0,1.05,0,1.582c0.59,0,0,0.805,0.59,0.805c0.292,1.596-0.59,3.459-0.59,5.059c-0.29,0.266-0.58,0.527-0.885,0.798
		c0,0.263,0,0.263,0,0.528c-0.279,0-0.578,0-0.578-0.266c-0.586,0.791-1.449,1.326-2.039,2.131c-0.58-0.271-0.867,0.258-1.159,0.258
		c-0.585,0,0,0.801-0.585,0.801c-0.588,0-1.166,0.268-1.463,0.532c-0.586,0.266-2.561-0.265-3.149,0.266l-0.28-0.266
		c-0.305,0.266-0.598,0.536-1.171,0.536c0-0.271,0-0.536-0.296-0.536c-0.295,0.795-1.566,1.33-2.335,1.063
		c-0.255-0.527-0.145-0.926-0.812-1.161c-0.225-1.685-0.225-3.124-1.113-4.572c0.225,0,0.225-0.237,0.225-0.47
		c-0.225-0.725-0.657-1.443-0.657-2.168c-0.671-0.953-0.886-2.391-1.775-3.115c0.224-0.236-0.444-0.479-0.218-0.725
		c-0.436-0.475-0.677-0.713-1.119-1.199c-0.439,0-0.439,0.246-0.658,0.486c-0.223,1.201-1.328,2.162-1.551,3.354l-0.227-0.235
		c-0.209,0.71-0.88,1.196-0.88,1.919c-0.442,0.24-0.668,0.959-1.1,1.201c0,0.234,0,0.234,0,0.482
		c-1.554,1.436-2.398,3.755-4.255,4.764c-0.472,1.008-1.633,1.203-2.102,2.322c-0.689,0-1.796,0.275-2.655,0.56
		c-0.575-0.284-1.444-0.838-2.023-0.284c0-0.275-0.295-0.275-0.577-0.275l-0.288,0.275c-0.585-0.554-1.454,0-2.321-0.275
		c-1.738-1.399-3.761-1.959-5.793-3.076c-0.58,0,0-0.839-0.58-0.839c-0.289,0-0.572,0-0.856-0.278c0-0.842,0.284-1.4-0.576-1.961
		l0.276-0.274c0-0.28-0.276-0.28-0.568-0.28c-0.288-1.678-1.168-3.076-1.449-4.758c-0.297-0.277-0.297-0.277-0.576-0.553
		c0-0.848-0.295-1.676-0.587-2.243c-0.289-1.11,0.718-2.044,0.164-3.112c0-0.26,0-0.521,0.274-0.795
		c-0.274-1.33,0-2.131,0.279-3.456c-0.279,0-0.279-0.269-0.279-0.534c0.557-1.06,0.557-2.128,0.557-3.19
		c0.267-0.809,0.822-1.596,1.094-2.394l-0.271-0.262c0.545-0.536,0.271-1.335,1.107-1.872c0-0.255,0-0.524-0.285-0.524
		c0-0.543,0.553-0.796,0.828-1.067c0.269-0.536,1.346-2.627,2.002-3.028l-0.207-0.317c0.489-0.68,1.726-0.971,2.707-1.057
		c0.732-0.068,2.141,0.657,2.557,0.894c0.308,0.628,0.016,1.119,0.427,1.915c0.21,0,0.21,0,0.411,0c0,0.271,0,0.271,0,0.537
		c0,0.262,0.213,0.262,0.416,0.262c0.207,0.796,0.618,1.597,0.42,2.387c0,0.274,0.198,0.274,0.416,0.274
		c-0.218,0.531,0.415,1.062,0.415,1.598c-0.415,0.524,0,1.331-0.218,2.125c0.625,1.334,0.422,2.929,1.041,4.256
		C249.547,67.275,249.955,68.342,250.382,69.141z"/>
	<path fill="#FFFFFF" d="M143.455,78.998c0,0,1.08,0.703,1.368,1.215c0.299,0.526,0.861,1.17,1.259,1.325
		c0.562,0.222,1.138,0.556,1.138,0.556l0.357,0.731l0.898,0.845c0.954,0.281,1.142-0.283,1.872,0.72c0.321,0,0.642,0,0.642,0.279
		l0.321-0.279c0.313,0.567,0.949,0.845,1.273,1.13c0.952,0,1.782,0.342,2.423,0.912c0.316,0,0.354,0.646,0.354,0.359
		c0.967,0.27,1.641,0.92,2.274,0.352c0.318,0,0.642,0,0.642,0.279l0.306-0.279c0.642-0.287,0.784,0.48,1.419,0.189
		c0.323,0,0.323,0.291,0.323,0.572c0.306,0,0.306,0,0.633,0c0.632,0.564,3.347-0.188,3.986,0.384
		c3.612,0.463,9.486-0.376,9.486-0.376c0.02-0.542,0.912,0.043,0.93-0.503l0.301,0.288c1.197,0.326,2.485-1.063,3.677-0.467
		c0.312-0.25,0.312-0.25,0.636-0.508c0.618-0.242,1.484,0.89,2.127,0.101c-0.014,0.275,0.299,0.285,0.6,0.305
		c0.017-0.278,0.017-0.278,0.024-0.548c0.944-0.492,2.091-0.363,2.791-1.118c0.3,0.04,0.901,0.098,1.209,0.134
		c0.329-0.243,0.329-0.243,0.667-0.482c1.576-0.377,2.949-1.616,4.746-2.033c0.283-0.304,0.885-0.353,1.135-0.922
		c0.308-0.021,0.617-0.051,0.922-0.074c0.277-0.292,0.551-0.586,0.823-0.885c0.936,0.184,1.757-1.098,2.653-1.237
		c-0.039-0.261-0.084-0.528,0.222-0.584l0.337,0.222c0.564-0.365,0.564-0.365,0.763-0.94c0.946,0.116,1.457-1.028,1.971-1.662
		c0.31-0.049,0.31-0.049,0.606-0.095c0.243-0.311,0.243-0.311,0.51-0.633c0.299-0.039,0.299-0.039,0.608-0.094
		c0.806-0.681,1.28-1.57,2.429-2.029c-0.056-0.266-0.086-0.537,0.205-0.586c0.654,0.177,0.506-0.632,0.77-0.945
		c0.258-0.182,1.058-0.756,1.267-0.494c-0.043,0.445,0.787-1.148,0.751-0.712c0.208,0.261,1.257-2.458,1.498-2.638l-2.527-6.62
		c-0.938,1.327-4.271,5.669-6.051,6.069c0.037,1.388-1.513,1.465-2.574,2.26c0.064,0.256,0.119,0.521-0.172,0.589
		c-0.89,0.202-1.278,1.188-1.879,1.325c-0.057-0.266-0.345-0.191-0.654-0.127c-0.229,0.336-0.816,0.463-0.986,1.062
		c-0.891,0.204-1.156,1.077-1.68,1.712l-0.338-0.223c-1.076,0.982-2.633,0.879-3.361,2.084c-1.725,0.814-3.193,1.103-4.984,1.764
		c-0.291,0.018-0.604,0.033-0.621-0.235c-0.262,0.563-1.521,0.104-1.793,0.665c-1.823,0.115-3.354-0.049-5.168,0.344
		c-0.036-0.541-0.911,0.055-0.951-0.483c-1.485,0.644-3.012-0.2-4.535-0.2c-0.311-0.266-0.916-0.266-1.225-0.805
		c-1.52,0.264-2.429,0-3.348-0.819c-0.92,0-1.529-0.813-2.446-1.084c0-0.271,0-0.271,0-0.542c-0.305-0.27-0.305-0.27-0.603-0.541
		c0-0.807,0.906-0.807,1.521-1.084c0.608-0.808,2.258-0.619,2.859-1.434c0-0.268,0.83-0.811,0.83-1.072
		c0.306-0.537,0.512-1.053,0.814-1.053c0.92-0.546,0.315-1.172,1.541-1.446c0-0.266,0.953-0.931,0.643-1.202
		c1.225-0.814,1.201-1.283,1.513-2.911c0.603-0.807,1.491-1.698,1.491-2.772c0.315-0.275-0.063-1.451,0.56-1.728
		c0.29-1.891-0.491-2.899-0.491-4.794c-0.304-0.267-0.304-0.267-0.608-0.535c0-0.817-0.608-1.361-0.31-2.166
		c-0.908-0.818-0.689-1.081-1.603-1.892l-0.532-0.55c-0.301,0-0.301,0-0.605,0c-0.311-0.539-1.225-0.808-1.225-1.355
		c-1.211-0.258-2.429-1.081-3.652-1.622l-0.307,0.276l-0.309-0.276c-0.302,0.276-0.302,0.276-0.608,0.541
		c0-0.816-0.917,0-1.223-0.541c-0.605,0-1.222-0.275-1.82,0.276c-1.832-0.551-3.805,0.399-5.644-0.412
		c0,0.544-1.219-0.271-1.219,0.544c-0.61,0.267-1.495,0.24-1.798,0.508c-0.305,0-0.608,0-0.914,0
		c-0.914,0.816-1.683,1.767-3.511,1.767c-0.608,0,0,0.803-0.608,0.803c-0.307,0-0.307,0-0.598,0
		c-1.53,1.358-2.749,2.978-4.584,4.065c0,0.271-0.616,0.536-0.309,1.087c0,0.271-0.307,0.271-0.611,0.271
		c0,0.54-0.301,0.809-0.603,1.077c0,0.27,0,0.549,0.302,0.549c0,0.268-0.465,0.96-0.758,0.96c-0.314,1.085-0.314,2.169-1.224,2.71
		c0,2.164-0.638,3.205-0.781,5.574c0.21,1.271,0.318,3.179,0.318,4.308c0.946,0.574-0.239,0.545,0.395,1.388
		c0.324,0,0.144,0.493,0.144,0.78c0.321,0.561,1.334,0.963,1.009,1.533c0,0.287,0.532,0.531,0.848,0.531
		c0.327,0.578-0.46,1.199,0.173,1.478c0,0.288,1.015,0.064,0.698,0.62L143.455,78.998z M163.338,61.359
		c-0.617,0.289,0,0.86-0.617,1.145l0.309,0.28c-0.231,2.326-1.689,5.487-4.928,7.728c-0.302,0-0.61,0-0.61-0.284
		c0-0.57-0.626-1.425-0.307-2c0-0.282-0.319-0.282-0.624-0.282c0.624-0.578-0.417-1.146-0.093-2.008
		c-0.324,0-0.324-0.281-0.324-0.574c0.932-0.568,0.17-2.049,1.096-2.609l-0.298-0.298c0.298-0.558,0.789-1.454,1.389-2.026
		c0-0.282,0-0.282,0-0.576c1.237-1.144,2.851-1.646,4.391-2.211c0.309,0,0.617,0,0.617,0.287
		C164.26,59.071,163.646,60.206,163.338,61.359z"/>
	<path fill="#FFFFFF" d="M216.352,58.752c0.029,0.371,0.074,0.75,0.114,1.118c2.088,2.013,1.681,5.461,3.073,7.938
		c-0.676,0.851-0.191,1.917-0.486,2.711c0.404,0.339,0.404,0.339,0.828,0.663c-0.563,1.957,0.754,3.679,0.572,5.601
		c-0.338,0.421-0.338,0.421-0.676,0.848c0.03,0.357,0.088,0.736,0.453,0.689l-0.328,0.422l0.398,0.328l-0.329,0.424
		c0.362-0.055,0.407,0.317,0.444,0.699c-0.663,0.83,0.564,1.822-0.474,2.705c0.412,0.324,0.447,0.703,0.474,1.084
		c-1.025,0.881-0.391,2.489-1.124,3.648l0.388,0.355l-0.366,0.396l-0.388-0.359c-0.372,0.016-0.365,0.4-0.354,0.772
		c0.387,0.731,1.152,1.447,0.428,2.231l0.385,0.355c-1.108,0.811-1.445,1.757-1.759,2.859c-0.337,0.374-0.337,0.374-0.687,0.754
		c0.367,0.348,0.374,0.692,0.374,1.059c-0.676,0.764-1.021,1.494-1.683,2.246c0,0.365,0.373,1.069-0.325,1.465l0.358,0.343
		c-0.34,0.735-0.646,1.829-0.98,2.567c0.346-0.02,0.35,0.33,0.35,0.705c-1.021,0.768-2.21,1.588-1.826,3.008
		c-0.672,1.117-1.54,1.492-2.215,2.611c0.366,0.692-1.225,1.025-1.209,1.742c0.014,0.725-1.037,0.415-0.672,1.107l0.352,0.35
		c-0.34,0.021-0.34,0.021-0.683,0.041c-0.351,0.734-0.351,0.734-1.021,1.128c0.01,0.354,0.02,0.725-0.335,0.739
		c-0.619,0.477-0.927,1.031-1.601,1.785c0.351,0.344-1.119,1.094-0.781,1.107c-0.379,0.344-0.759,0.684-0.818,1.396
		c-0.351-0.015-0.697-0.032-0.734,0.323l0.021,0.464c-0.24,0.252-0.309,0.24-0.813,0.358c-2.721,3.102-6.69,4.32-9.43,7.416
		c-0.729,0.328-1.449,0.65-2.172,0.975c-0.745,0.322-0.487,1.402-1.149,1.014c0.034-0.359-0.931,0.311-1.27,0.293
		c-0.771,0.681-1.908,0.186-2.623,0.143c0.037-0.355-0.37-0.275-0.694-0.652l-0.38,0.343c-0.315-0.378-1.103-1.105-1.448-1.129
		c-0.31-0.373,0.379-0.743,0.033-0.759l0.378-0.346c0.031-0.355-0.538-0.441-0.884-0.461c-0.631-0.758,0.697-0.182,0.422-0.926
		l-1.363-0.111c-0.322-0.707-0.99-0.737-1.272-1.463c0.07-0.711,1.583-0.694,1.653-1.411c0.699,0.038,0.498-0.081,1.23-0.411
		l-0.248-0.502c0.725-0.34,0.623-0.96,0.967-0.936c-0.021,0.354,0.257-0.047,0.602-0.036c0.348,0.024,0.697,0.036,0.738-0.317
		c0.023-0.354,0.053-0.723,0.443-1.063c0.346,0.031,0.346,0.031,0.696,0.043c1.511-1.368,0.55-0.46,2.106-2.182
		c0.023-0.352,0.023-0.352,0.058-0.71c0.381-0.343,0.437-1.055,1.177-1.383c-0.028,0.364-0.078,0.714,0.275,0.735
		c1.119-0.674,0.451-1.062,0.173-1.786c0.38-0.345,0.38-0.345,0.766-0.674c-0.041,0.358,0.59,0.077,0.234,0.067
		c-0.032,0.352,0.366-0.85,0.716-0.826c0.859-1.329,0.227,0.238,1.516-2.207c0.264-0.273,0.917-0.523,0.98-0.695
		c-0.084-0.035,0.799-0.359,0.488-0.73c-0.037-0.279,0.1-0.402-0.637-0.074c0.418-0.697,1.639-1.753,1.701-2.477
		c1.014,0.408,0.19-1.197,0.898-1.169c-0.38,0.339-0.721-0.353-0.711,0.015l1.152-0.035c0.768-0.676-1.066-0.646-0.379-1.414
		c-0.021-0.357-0.115-0.566-0.459-0.543c-0.02-0.361-0.107-0.652,0.252-0.67l0.35,0.337c0.343-0.37-0.324-1.587,0.361-1.985
		c0-0.355-0.016-0.723-0.019-1.072c1.022-0.772,0.556-0.647,0.881-1.744l-0.351-0.334c0.008,0.348,0.749-0.342,0.402-0.328
		c-0.009-0.362-0.009-0.362-0.009-0.725c0.682-0.389,1.17-2.781,1.144-3.498c0.026,0.717-0.809-1.646-0.102-1.322
		c0.997-1.5,0.324-3.496,0.479-5.334c-0.731-0.27,0.564-0.781,0.151-1.463c-0.339,0.043-0.688,0.09-0.729-0.266
		c0.32-0.402,0.32-0.402,0.617-0.811c-0.037-0.359-0.069-0.711-0.416-0.662c-0.031-0.363-0.061-0.729,0.277-0.766
		c-0.049-0.365-0.074-0.719-0.422-0.673c0.306-0.407,0.306-0.407,0.623-0.808c-0.046-0.355-0.388-0.314-0.725-0.257
		c0.206-1.491-1.283-2.562-0.742-4.075c-0.34,0.043-0.377-0.31-0.41-0.675c0.92-1.204-0.338-2.649,0.234-3.808
		c-0.721-0.27-0.452-1.027-0.526-1.752c0.313-0.396-0.587-0.758-0.612-1.109c-0.882-1.71-0.634-3.055-1.2-4.882
		c-0.681,0.618-1.17-4.998-1.768-7.188c-0.907-1.408-0.306-2.998-0.839-4.442c0.363-0.045,0.744-0.093,0.713-0.461
		c-0.49-1.079,0.59-1.598,0.843-2.769c0.754-0.08,1.454-0.554,2.268,0.1c0.715-0.46,0.271-1.165,0.237-1.532
		c1.479-0.188,2.598-0.331,4.084-0.513c0.045,0.375,0.077,0.749,0.46,0.693c1.103-0.134,1.567,0.558,2.661,0.424
		c0.047,0.379,0.079,0.753,0.458,0.701c0.737-0.09,1.148,0.24,1.568,0.564c0.361-0.048,0.737-0.085,0.698-0.456l0.413,0.316
		l0.331-0.419c0.413,0.329,0.779,0.284,1.146,0.234c0.417,0.324,0.524,1.448,1.242,0.983
		C212.803,53.513,214.926,55.899,216.352,58.752z"/>
	<path fill="#FFFFFF" d="M52.002,65.416c-0.121-0.595-0.988-0.773-1.347-0.78c-0.353-0.001-1.032,0.745-1.38,0.159
		c0,0-0.598,0.963-1.306,1.475c-0.486,0.342-1.226,0.286-1.226,0.286c-0.182,0.922-0.276,1.018,0.531,3.162
		c0.352,0.075,0.75,2.129,1.133,2.212c-0.168-0.799,1.058,1.7,1.458,2.056c0.252,0.057,0.252,0.057,0.507,0.124
		c0.245,0.067,0.127,0.292,0.023,0.517l1.115,0.793c0.109,0.299,0.345,0.389,0.078,0.814c0.858,0.06,1.404,0.57,2.116,0.881
		c0.239,0.102,0.088,0.307-0.048,0.52c0.218,0.106,0.468,0.204,0.616,0c0.621,0,0.182,0.623,0.272,0.929l0.38-0.102
		c0.103,0.305,0.567,0.524,0.567,0.524c0.748,1.132,4.372,2.512,5.283,3.531l0.35-0.171c0.288,0.589,1.889,0.7,1.881,1.472
		l0.337-0.211c0.172,0.281,2.564,0.732,3.236,1.096c0.331-0.209-0.136-0.57,0.217-0.746c0.395,0.348,1.231,1.104,1.617,1.457
		c0,0,1.041,0.08,1.773,0.251c0.928,0.983,2.856,0.368,3.979,0.887c0.152,0.291,0.395,0.345,0.647,0.407l0.356-0.186l0.145,0.293
		c0.712-0.358,1.097-0.012,1.573-0.432l0.131,0.297l0.351-0.182c0.148,0.291,0.148,0.291,0.287,0.582
		c0.993,0.225,1.89,0.686,2.945,0.143c0.137,0.289,0.392,0.353,0.635,0.403c0.362-0.181,0.362-0.181,0.723-0.362
		c0.743,0.162,0.89,0.456,1.734,0.393l0.147,0.287c1.07-0.536,1.814-0.368,2.807-0.152c0.214-0.463,0.744,0.171,0.954-0.298
		l0.141,0.294c0.818-0.602,2.082-0.281,2.946-0.318l0.138,0.297c0.362-0.176,0.232,0.018,0.232,0.018
		c0.703-0.334,2.453-0.36,2.93-0.756c0.988,0.26,0.95,0.453,2.298,0.27c0.273,0.064,0.833,0.187,1.104,0.278
		c1.086-0.743,2.052-0.719,2.999-0.171c1.092-0.209,2.821-1.059,3.782-1.568c0.267,0.082,0.552,0.161,0.826,0.241
		c0.403-0.146,0.675-0.067,0.948-0.509c1.221-0.43,2.095-0.853,3.207-1.585c0.138,0.309,0.818-0.28,0.957,0.022
		c0.14-0.225,0.14-0.225,0.272-0.445c0.542,0.157,0.956-0.512,1.495-0.354c0.146-0.217,0.146-0.217,0.282-0.439
		c0.815-0.292,0.503-0.498,1.313-0.771c0.705-0.484,1.685-2.121,3.297-2.832c-0.044-0.529,1.017-0.811,1.25-1.285
		c0.12-0.229,0.396-0.172,0.682-0.113l-0.171-0.292c0.392-0.169,0.287-0.946,0.653-0.603c0.101-0.231,0.577-0.844,0.341-0.893
		c0.78-0.609,0.772-2.611,1.919-2.871c0.106-0.229,0.106-0.229,0.209-0.465c0.458-0.605,0.273-1.763,0.532-1.905
		c0.099-0.228-0.029-0.394,0.219-0.335c0.282-0.918,0.507-2.321,0.777-3.553c-0.226-0.053-0.128-0.289-0.036-0.52
		c0.232,0.049,0.34-0.187,0.442-0.418c-0.23-0.055-0.13-0.297-0.023-0.53l0.326-0.179c-0.467-0.108,0.082-0.745-0.405-0.849
		l0.322-0.197c-0.403-1.115,0.184-2.271-0.211-3.386l0.305-0.186c-0.543-0.641-0.459-1.308,0.012-1.973
		c-0.155-0.301-0.079-0.54,0-0.782c-0.634-0.395,0.147-0.81-0.254-1.167c0.231-0.713-0.559-1.415-0.083-2.08
		c-0.32-0.588-0.37-0.831-0.715-1.405c0.066-0.249,0.134-0.491,0.204-0.737c-0.241-0.045-0.48-0.094-0.422-0.329
		c0.383-0.447-0.03-0.783,0.113-1.269c-0.483-0.095-0.228-0.511-0.401-0.793c-0.144-1.314-0.495-2.301-1.268-3.414
		c0.322-0.483-0.333-2.392-0.311-2.998l-0.466-0.243c-0.198-0.611-0.424-0.919-0.88-1.251c0.013-0.294,0.013-0.294,0.044-0.593
		c-0.242-0.015-0.49-0.021-0.469-0.333c0.031-0.294,0.031-0.294,0.035-0.593l-0.254,0.287c-0.46-0.321-0.658-0.929-0.625-1.534
		c-0.879-1.248-1.206-2.138-2.469-3.933c-0.495,0.278-0.011-0.937-0.606-0.662c-0.682-1.534-1.119-1.909-2.123-2.853
		c0.036-0.294,0.036-0.294,0.061-0.602c-0.274,0-0.274,0-0.549-0.016c-0.281-0.005-0.25-0.303-0.219-0.606
		c-1.573-0.959-7.147-1.74-8.004-3.282c-0.474-0.018-0.956-0.333-1.244,0.269c-0.218-0.32-0.218-0.32-0.44-0.626
		c-1.301,0.864-2.395-0.681-3.604-1.024l-0.264,0.294c-0.416-0.921-1.223-0.041-1.71-0.05c-0.222-0.315-0.476-0.318-0.715-0.327
		c-1.283,0.563-2.445-0.082-3.558,1.404L92.5,27.309l2.787,5.182c-0.073,0.28,0.705,3.5,1.445,5.12
		c0.258,0.056,0.568,0.638,0.745,0.968c-0.058,0.284-0.058,0.284-0.123,0.567c0.377,0.681,0.738,1.342,1.111,2.024
		c-0.247-0.047-0.316,0.229-0.375,0.521c0.298,0.956,0.286,1.982,0.572,2.913c0.39,0.347-0.063,0.549,0.367,0.991
		c0.048,0.043-0.25,0.607-0.194,0.637c-0.18,0.457,0.123,1.034,0.123,1.034c0.133,1.035,0.08,0.21,0.801,0.947
		c-0.659,0.798,0.458,2.09-0.215,2.883c0.37,0.37,0.374-0.159,0.497,0.141c-0.127,0.207-0.127,0.207-0.238,0.418
		c-0.117,0.217,0.111,0.298,0.342,0.385c0.229,0.586-0.189,0.94,0.117,1.491c0.244,0.055,0.021,0.777,0.253,0.831
		c0.074,0.521,0.744,0.687,0.095,1.052c-0.22-0.056-0.095,0.993-0.339,1.692c0.149,0.275,0.005,1.48-0.068,1.729
		c0.233,0.047,0.399-0.234,0.309,0c-0.079,0.227-0.079,0.227-0.157,0.458c0.234,0.048,0.207,0.482,0.123,0.714
		c-0.012,0.743-0.489,1.128-0.749,1.826c-0.256,1.51,0.53,2.746-0.496,3.275c0.369,0.33-0.081,0.74-0.194,0.969
		c-0.337,0.168-0.256,0.902-0.561,1.086c-0.385,0.921-0.571,0.871-0.946,1.793c-0.625,0.357-0.724,0.762-1.34,1.125
		c-0.091,0.23-0.091,0.23-0.198,0.454c-0.087,0.231-0.312,0.182-0.515,0.136c-0.41,0.412-1.824,1.063-2.016,1.514l0.11,0.283
		c-0.833,0.314-1.087,0.41-2.005,0.953c-0.932,0.554-1.62,0.554-2.581,1.051c-0.843-0.234-1.563,0.387-2.411,0.146
		c-0.317,0.17-0.643,0.338-0.96,0.498c-0.418-0.116-1.056,0.216-1.375-0.123c-0.417-0.12-0.321,0.672-0.75,0.556
		c-0.204-0.062-0.204-0.062-0.423-0.116l-0.094-0.286c-0.643,0.331-1.16-0.06-1.804,0.257l-0.106-0.268
		c-0.633,0.324-1.173-0.035-1.581,0.381c-0.543-0.374-1.707-0.381-2.662-0.305c0.09-0.242-0.13-0.277-0.342-0.32l-0.304,0.198
		c0.086-0.231-1.811-0.097-2.02-0.126l-0.43-0.08l-0.142-0.279l-0.298,0.191c-0.345-0.306-2.62-0.539-3.168-1.127
		c-0.433,0.407-0.854,0.227-1.343,0.129c-2.039-0.129-4.521-1.028-4.77-1.089l-0.145-0.287c-0.715,0.351-1.896-0.028-2.203-0.606
		c-0.254-0.044-0.583-0.082-0.827-0.156c-0.26-0.598-1.872-0.476-2.075-1.092c0,0-0.802-0.557-1.146-0.971
		c-0.531,0.327-1.857-1.255-2.102-1.35l-0.878-0.037l-0.314-0.956l-1.195-0.881C52.651,65.475,52.166,66.178,52.002,65.416z"/>
	<path fill="#FFFFFF" d="M70.696,30.896c0.33,0.014,0.661,0.032,0.988,0.048c1.568,1.617,4.678,1.143,6.728,2.177
		c0.822-0.591,1.715-0.233,2.46-0.511c0.251,0.323,0.251,0.323,0.503,0.64c1.801-0.531,2.767,0.377,4.49,0.254
		c0.418-0.266,0.418-0.266,0.843-0.54c0.326,0.031,0.646,0.086,0.555,0.376l0.417-0.27l0.225,0.344l0.428-0.266
		c-0.102,0.295,0.227,0.343,0.548,0.371c0.831-0.531,1.34,0.18,2.3-0.613c0.217,0.342,0.543,0.395,0.864,0.444
		c0.95-0.8,1.292,0.043,2.464-0.341l0.203,0.368l0.428-0.233l-0.187-0.374c0.108-0.292,0.42-0.22,0.741-0.144
		c0.514,0.435,0.865,1.088,1.764,0.675l0.173,0.364c0.549-0.374-3.717-0.574,2.942-0.794c0.437-0.188,0.437-0.188,0.854-0.377
		c0.176,0.362,0.468,0.433,0.763,0.516c0.845-0.379,1.568-0.492,2.42-0.871c0.298,0.084,0.77,0.515,1.318,0.06l0.168,0.344
		c0.72-0.102,1.741-0.136,2.452-0.239c-0.118,0.269-0.485-0.374-0.196-0.251c1.016-0.505,2.134-1.125,3.098-0.372
		c1.135-0.115,1.625-0.688,2.772-0.772c0.38,0.541,1.297-0.516,1.843-0.227c0.536,0.269,0.558-0.485,0.913,0.063l0.093,0.394
		c0.179-0.239,0.179-0.239,0.34-0.483c0.708,0.057,0.708,0.057,1.307-0.273c0.261,0.153,0.521,0.314,0.697,0.064
		c0.637-0.25,1.189-0.25,2.038-0.435c0.094,0.409,0.711-0.187,0.554,0.052c0.421-0.095,0.869-0.178,1.394,0.125
		c0.16-0.24,0.332-0.486,0.6-0.337l0.316,0.244c0.292-0.049,0.316-0.095,0.675-0.37c3.556-0.326,5.543-2.06,9.073-2.06
		c0.615-0.275,1.24-0.56,1.856-0.836c0.614-0.289,1.173,0.479,1.292-0.168c-0.246-0.171,0.729-0.417,0.918-0.642
		c0.86-0.097,1.399-1.601,1.752-2.076c-0.254-0.172,0.014-0.405-0.068-0.814l0.429-0.075c-0.073-0.398-0.167-2.108,0.003-2.352
		c-0.076-0.405-0.688-0.151-0.519-0.387l-0.16-0.289c-0.244-0.171,0.086-0.608,0.254-0.837c-0.168-0.82-0.909,0.104-1.264-0.476
		l0.643-0.961c-0.288-0.58-1.605-0.921-2.114-1.267c-0.356,0.482-0.318,0.29-0.923,0.601l-0.218-0.447
		c-0.616,0.321-0.962-0.075-1.139,0.155c0.255,0.166-0.173,0.146-0.337,0.378c-0.179,0.244-0.351,0.482-0.609,0.318
		c-0.253-0.171-0.516-0.326-0.942-0.264c-0.173,0.245-0.173,0.245-0.349,0.471c-1.721,0.296-5.588,0.384-5.979-0.147
		c-0.434,0.104-0.434,0.104-0.861,0.22c0.271,0.141-0.221,0.451-0.062,0.199c0.272,0.145-0.782-0.141-0.934,0.125
		c-1.366-0.015-4.394,0.296-3.804-0.065c-0.698-0.033-2.058,0.338-2.608,0.052c-0.193,0.898-1.157-0.499-1.449,0.008
		c0.429-0.121-0.536-0.178-0.256-0.05l0.029,0.361c-0.858,0.251-0.917-0.542-1.768-0.241c-0.29-0.12-0.413-0.264-0.276-0.517
		c-0.276-0.111-0.478-0.277-0.622-0.008l0.144,0.374c-0.432,0.15-1.16-0.719-1.712-0.319c-0.288-0.111-0.565-0.225-0.856-0.347
		c-0.991,0.562-2.054,0.546-3.081,0.625l-0.191-0.347c0.301,0.066-0.498,0.539-0.378,0.269c-0.299-0.072-0.299-0.072-0.601-0.129
		c-0.536,0.482-2.683,0.467-3.288,0.334c0.605,0.133-1.216-1.062-1.107-0.441c-1.533,0.599-3.274-0.298-4.9-0.313
		c-0.106-0.617-0.783,0.411-1.294,0.018c0.102-0.28,0.187-0.554-0.102-0.61c-0.402,0.218-0.703,0.125-1.11,0.359
		c-0.301-0.03-0.614-0.076-0.524-0.345c-0.299-0.047-0.623-0.081-0.714,0.196c-0.305-0.046-0.605-0.078-0.52-0.358
		c-0.398,0.243-0.806,0.546-1.192,0.795c-0.314-0.021-0.228-0.317-0.156-0.591c-1.324,0.179-2.091-1.022-3.494-0.555
		c0.074-0.284-0.228-0.299-0.547-0.333c-1.169,0.771-2.831-0.072-3.906,0.479c-0.188-0.573-0.888-0.296-1.515-0.307
		c-0.382,0.28-0.632-0.424-0.94-0.437c-1.442-0.6-2.675-0.3-4.239-0.635c0.605-0.602-4.338-0.627-6.234-0.969
		c-1.182-0.642-2.634-0.043-3.876-0.371c-0.069,0.304-0.148,0.61-0.474,0.61c-0.914-0.33-1.452,0.594-2.514,0.886
		c-0.137,0.61-0.815,0.908-0.633,1.437c-0.454,0.616-0.511,0.719-0.84,0.709c-0.288,1.227-0.485,1.103-0.808,2.332
		c0.322,0.019,0.656,0.026,0.576,0.334c-0.243,0.919,0.318,1.269,0.08,2.175c0.332,0.021,0.667,0.033,0.575,0.343
		c-0.155,0.614,0.092,0.937,0.336,1.256c-0.086,0.306-0.165,0.611-0.484,0.596l0.24,0.317l-0.405,0.296
		c0.248,0.321,0.171,0.625,0.079,0.934c0.25,0.318,1.239,0.364,0.749,0.965C66.429,28.219,68.317,29.859,70.696,30.896z"/>
</g>
</svg>
