<?xml version="1.0" encoding="utf-8"?>
<!-- Generator: Adobe Illustrator 16.0.0, SVG Export Plug-In . SVG Version: 6.00 Build 0)  -->
<!DOCTYPE svg PUBLIC "-//W3C//DTD SVG 1.1//EN" "http://www.w3.org/Graphics/SVG/1.1/DTD/svg11.dtd">
<svg version="1.1" id="Layer_1" xmlns="http://www.w3.org/2000/svg" xmlns:xlink="http://www.w3.org/1999/xlink" x="0px" y="0px"
	 width="512px" height="512px" viewBox="0 0 512 512" enable-background="new 0 0 512 512" xml:space="preserve">
<g>
	<path fill="#C68A86" d="M126,180c79.658,0,149.384-23.332,170.001-56.885C306.916,156.668,343.829,180,386,180h5
		c5.616,0,10.814,1.877,15,5.034V160c0-82.5-67.5-150-150-150S106,77.5,106,160v25.034c4.186-3.157,9.384-5.033,15-5.033L126,180
		L126,180z"/>
	<path fill="#FFDCD5" d="M296.001,123.115C275.385,156.668,205.659,180,126,180h-5c-5.616,0-10.814,1.877-15,5.033
		c-6.063,4.573-10,11.832-10,19.967c0,13.75,11.25,25,25,25h5.384c3.235,42.016,26.672,78.603,60.547,99.999
		c9.751,6.159,20.367,11.059,31.616,14.468C230.419,348.064,242.994,350,256,350s25.581-1.936,37.453-5.533
		c11.248-3.408,21.865-8.309,31.615-14.468c33.875-21.396,57.313-57.983,60.548-99.999H391c13.75,0,25-11.25,25-25
		c0-8.135-3.938-15.394-10-19.967c-4.186-3.157-9.384-5.033-15-5.033h-5C343.829,180,306.916,156.668,296.001,123.115z"/>
	<path fill="#8AA7BD" d="M186.932,330H146c-11,0-20,9-20,20v57.015c8.526-11.863,18.631-22.525,30-31.673
		c12.041-9.688,25.5-17.675,40.003-23.59c7.268-2.964,14.798-5.408,22.544-7.284C207.299,341.059,196.683,336.159,186.932,330
		L186.932,330z"/>
	<path fill="#8AA7BD" d="M325.068,330c-9.75,6.159-20.367,11.059-31.615,14.468c7.746,1.876,15.275,4.319,22.544,7.284
		c14.504,5.915,27.963,13.902,40.003,23.59c11.369,9.147,21.475,19.81,30,31.673V350c0-11-9-20-20-20H325.068z"/>
	<path fill="#FFFFFF" d="M315.997,351.751c-7.269-2.964-14.798-5.408-22.544-7.284C281.581,348.064,269.006,350,256,350
		s-25.581-1.936-37.453-5.533c-7.745,1.876-15.276,4.319-22.543,7.284l23.947,41.197l7.011-5.965l29.039-24.708l29.039,24.708
		l7.011,5.965L315.997,351.751z"/>
	<path fill="#60A4FF" d="M285.04,386.983l-29.039-24.708l-29.039,24.708l15.074,15.073c7.681,7.682,20.25,7.681,27.931,0
		L285.04,386.983z"/>
	<path fill="#FFFFFF" d="M229.61,502.002l12.425-99.945l-15.074-15.073l-7.01,5.965l-23.947-41.196v150.25H229.61z"/>
	<path fill="#6D91AC" d="M315.997,351.752v150.25h40.001L356,375.342C343.96,365.654,330.501,357.666,315.997,351.752
		L315.997,351.752z"/>
	<path fill="#FFFFFF" d="M356.001,375.341l-0.002,126.66h60.002V500c0-34.606-11.136-66.737-30-92.986
		C377.475,395.151,367.37,384.488,356.001,375.341z"/>
	<path fill="#6D91AC" d="M196.004,502.002v-150.25c-14.504,5.915-27.962,13.902-40.001,23.593v126.658L196.004,502.002
		L196.004,502.002z"/>
	<path fill="#FFFFFF" d="M156.003,502.002l-0.002-126.66c-11.369,9.147-21.474,19.811-30,31.673c-18.865,26.249-30,58.379-30,92.985
		v2.002H156.003z"/>
	<path fill="#FFFFFF" d="M282.393,502.002l-12.427-99.945l15.074-15.073l7.011,5.965l23.946-41.196v150.25H282.393z"/>
	<path fill="#60A4FF" d="M282.393,502.002l-12.427-99.945c-7.681,7.681-20.25,7.682-27.931,0l-12.426,99.945H282.393z"/>
</g>
<g>
	<path d="M396,403.875V350c0-16.542-13.458-30-30-30h-12.354c21.555-21.025,36.465-48.914,40.945-80.182
		C412.21,238.014,426,223.087,426,205c0-9.513-3.82-18.147-10-24.462V160c0-42.571-16.688-82.705-46.991-113.008
		C338.706,16.688,298.572,0,256,0s-82.706,16.688-113.009,46.991C112.688,77.294,96,117.428,96,160v20.539
		c-6.18,6.315-10,14.949-10,24.462c0,18.087,13.79,33.014,31.408,34.817c4.48,31.268,19.391,59.157,40.946,80.182H146
		c-16.542,0-30,13.458-30,30v53.877c-19.413,28.208-30,61.9-30,96.123v2.001c0,5.523,4.478,10,10,10h320.001c5.521,0,10-4.477,10-10
		V500C426.001,465.777,415.414,432.082,396,403.875L396,403.875z M366,340c5.514,0,10,4.486,10,10v29.894
		c-15.585-15.54-34.047-27.974-54.174-36.519c2.006-1.079,3.986-2.202,5.934-3.375H366z M292.116,492.001l-11.581-86.371
		l5.053-5.053c1.82,1.541,4.114,2.37,6.463,2.37c0.563,0,1.126-0.047,1.688-0.145c2.92-0.5,5.468-2.27,6.957-4.831l5.302-9.121
		v103.148h-13.882V492.001z M206.004,492.001V388.854l5.301,9.119c1.489,2.563,4.037,4.331,6.957,4.831
		c2.917,0.498,5.898-0.317,8.151-2.227l5.095,5.094L220.775,492L206.004,492.001L206.004,492.001z M166.002,379.964
		c6.28-4.697,12.963-8.922,20.002-12.624v124.661h-20.002V379.964z M293.566,354.812c2.627,0.683,5.22,1.433,7.781,2.245
		l-11.931,20.522l-21.289-18.115C276.842,358.701,285.35,357.128,293.566,354.812z M262.895,394.986
		c-1.824,1.825-4.273,2.831-6.894,2.831s-5.068-1.006-6.895-2.832l-7.41-7.41L256,375.405l14.304,12.171L262.895,394.986z
		 M222.583,377.579l-11.929-20.522c2.561-0.812,5.153-1.563,7.779-2.245c8.218,2.316,16.726,3.89,25.44,4.653L222.583,377.579z
		 M250.222,417.261c1.883,0.367,3.816,0.557,5.779,0.557c2.009,0,3.985-0.198,5.911-0.582l10.025,74.766H240.93L250.222,417.261z
		 M325.997,367.343c7.038,3.702,13.721,7.929,20.001,12.626v112.032h-20.001V367.343z M256,20c77.195,0,140,62.804,140,140v10.363
		c-1.634-0.235-3.302-0.363-5-0.363h-5c-37.818,0-70.917-20.552-80.489-49.979c-1.206-3.708-4.458-6.377-8.329-6.837
		c-3.869-0.458-7.658,1.372-9.701,4.695C268.924,148.08,201.012,170,126,170h-5c-1.698,0-3.366,0.128-5,0.363V160
		c0-3.364,0.127-6.698,0.361-10.003c14.941-0.021,31.455-0.213,48.34-2c5.492-0.581,9.474-5.504,8.893-10.997
		c-0.581-5.493-5.525-9.478-10.996-8.892c-14.841,1.57-29.686,1.833-43.348,1.879C133.026,67.166,189.104,20,256,20z
		 M136.355,229.233c-0.401-5.21-4.746-9.232-9.971-9.232H121c-8.271,0-15-6.729-15-15s6.729-15,15-15h5
		c73.416,0,137.402-18.871,167.563-48.186C310.713,170.836,346.365,190,386,190h5c8.271,0,15,6.729,15,15s-6.729,15-15,15h-5.384
		c-5.226,0-9.569,4.022-9.972,9.232C370.864,291.346,318.309,340,256,340C193.691,340,141.137,291.346,136.355,229.233z M146,340
		h38.24c1.948,1.173,3.928,2.295,5.934,3.375c-20.127,8.546-38.589,20.98-54.174,36.52V350C136,344.486,140.487,340,146,340L146,340
		z M146.002,397.941v94.061H106.21C108.097,456.054,122.646,423.074,146.002,397.941z M365.998,492.001v-94.052
		c23.354,25.136,37.904,58.115,39.793,94.052H365.998z"/>
	<path d="M296.002,240c5.521,0,10-4.477,10-10v-0.007c0-5.523-4.479-9.997-10-9.997s-10,4.481-10,10.004S290.48,240,296.002,240z"/>
	<path d="M215.999,240c5.522,0,10-4.477,10-10v-0.007c0-5.523-4.478-9.997-10-9.997s-10,4.481-10,10.004S210.477,240,215.999,240z"
		/>
	<path d="M223.65,272.943c8.643,8.642,20.131,13.4,32.351,13.4s23.708-4.759,32.351-13.4c3.905-3.904,3.905-10.236,0-14.142
		c-3.903-3.905-10.233-3.906-14.143,0c-4.864,4.864-11.33,7.542-18.208,7.542s-13.344-2.679-18.208-7.542
		c-3.906-3.905-10.238-3.905-14.143,0C219.744,262.708,219.744,269.039,223.65,272.943z"/>
	<path d="M207.931,139.982c5.522,0,10-4.477,10-10s-4.478-10-10-10h-0.008c-5.522,0-9.996,4.477-9.996,10
		S202.408,139.982,207.931,139.982z"/>
</g>
</svg>
