<?xml version="1.0" encoding="utf-8"?>
<!-- Generator: Adobe Illustrator 16.0.0, SVG Export Plug-In . SVG Version: 6.00 Build 0)  -->
<!DOCTYPE svg PUBLIC "-//W3C//DTD SVG 1.1//EN" "http://www.w3.org/Graphics/SVG/1.1/DTD/svg11.dtd">
<svg version="1.1" id="Layer_1" xmlns="http://www.w3.org/2000/svg" xmlns:xlink="http://www.w3.org/1999/xlink" x="0px" y="0px"
	 width="512px" height="512px" viewBox="0 0 512 512" enable-background="new 0 0 512 512" xml:space="preserve">
<g>
	<g>
		<path fill="#86DCFF" d="M407.012,504H104.988v-80.421c0-64.319,52.141-116.459,116.459-116.459h69.105
			c64.319,0,116.459,52.141,116.459,116.459V504z"/>
		<path fill="#56CAED" d="M104.988,486h302.026v18H104.988V486z"/>
		<path fill="#E4EEF9" d="M256,414.56l86.533-95.216c-15.648-7.817-33.299-12.225-51.98-12.225h-69.106
			c-18.682,0-36.332,4.406-51.98,12.224L256,414.56z"/>
		<path fill="#D5E0F2" d="M181.213,314.269c-4.024,1.482-7.945,3.177-11.746,5.075L256,414.56l86.533-95.216
			c-3.801-1.898-7.723-3.593-11.746-5.075l-71.087,78.22c-1.984,2.183-5.417,2.183-7.4,0L181.213,314.269z"/>
		<g>
			<path fill="#FFC4AD" d="M161.479,212.599v-37.882c-1.071-0.11-2.158-0.167-3.259-0.167c-17.406,0-31.517,14.111-31.517,31.517
				c0,17.406,14.111,31.517,31.517,31.517c2.202,0,4.351-0.228,6.426-0.658C162.584,229.163,161.479,221.011,161.479,212.599z"/>
			<path fill="#FFC4AD" d="M353.78,174.549c-1.102,0-2.188,0.057-3.259,0.167v37.882c0,8.411-1.105,16.564-3.168,24.327
				c2.076,0.43,4.225,0.658,6.427,0.658c17.405,0,31.517-14.111,31.517-31.517C385.297,188.66,371.186,174.549,353.78,174.549z"/>
		</g>
		<path fill="#FFB69F" d="M158.22,219.584c-14.278,0-26.332-9.497-30.206-22.517c-0.849,2.853-1.311,5.872-1.311,9
			c0,17.406,14.111,31.517,31.517,31.517c2.202,0,4.351-0.228,6.426-0.658c-1.502-5.656-2.49-11.522-2.919-17.542
			C160.575,219.512,159.406,219.584,158.22,219.584z"/>
		<path fill="#FFB69F" d="M353.78,219.584c-1.187,0-2.355-0.071-3.507-0.199c-0.43,6.021-1.416,11.885-2.918,17.542
			c2.074,0.43,4.224,0.658,6.426,0.658c17.406,0,31.517-14.111,31.517-31.517c0-3.128-0.463-6.147-1.312-9
			C380.111,210.086,368.059,219.584,353.78,219.584z"/>
		<path fill="#FFE0CC" d="M161.479,77.674v134.925c0,52.202,42.319,94.521,94.521,94.521s94.521-42.318,94.521-94.521V77.674
			H161.479z"/>
		<path fill="#FFCEB3" d="M256,289.12c-52.202,0-94.521-42.318-94.521-94.521v18c0,52.202,42.319,94.521,94.521,94.521
			s94.521-42.318,94.521-94.521v-18C350.521,246.801,308.202,289.12,256,289.12z"/>
		<path fill="#2D4456" d="M350.51,147.095c-18.732-10.735-36.099-41.959-36.099-41.959c-18.067,34.458-57.3,38.169-57.3,38.169
			c3.613-17.494-9.807-33.928-9.807-33.928c-31.617,36.645-72.677,39.425-83.294,39.161c-1.614-0.04-3.212-0.304-4.76-0.777
			c-24.742-7.573-47.856-37.878-47.856-37.878c35.815,1.109,47.73-22.116,47.73-22.116c-36.596,1.107-39.1-36.647-39.1-36.647
			c55.186,7.195,66.228-25.436,114.895-39.81s83.125,22.748,83.125,22.748s49.323-4.762,53.556,45.52
			C375.643,127.636,350.51,147.095,350.51,147.095"/>
		<g>
			<path fill="#253847" d="M347.021,126.858c-11.916-8.434-22.853-24.03-28.529-32.965c-1.872-2.947-6.073-3.065-8.211-0.305
				c-20.436,26.387-62.976,15.789-62.976,15.789s13.421,16.434,9.808,33.928c0,0,39.23-3.711,57.299-38.169
				c0,0,17.367,31.224,36.099,41.959c0,0,24.734-19.178,21.161-66.436c-2.074,25.399-12.748,39.794-18.097,45.516
				C351.861,128.006,349.068,128.306,347.021,126.858z"/>
			<path fill="#253847" d="M248.361,103.451c0.678-4.69-4.996-7.588-8.406-4.297c-30.329,29.273-66.134,31.629-75.945,31.384
				c-1.614-0.04-3.212-0.304-4.76-0.777c-12.012-3.677-23.632-12.71-32.418-21.034c-4.566,0.879-9.69,1.333-15.438,1.155
				c0,0,23.114,30.305,47.856,37.878c1.547,0.474,3.145,0.737,4.76,0.777c10.618,0.265,51.677-2.516,83.294-39.161
				C247.768,107.134,248.112,105.17,248.361,103.451z"/>
		</g>
		<path fill="#E6485D" d="M273.52,340.974h-35.04l-7.643-33.854h50.326L273.52,340.974z"/>
		<path fill="#FF5876" d="M256,414.56c0,0,17.546-19.307,25.771-28.358l-8.252-45.229h-35.04l-8.252,45.229L256,414.56z"/>
		<path fill="#E6485D" d="M281.771,386.201l-2.734-14.99L259.7,392.488c-1.984,2.183-5.417,2.183-7.4,0l-19.337-21.277l-2.735,14.99
			L256,414.56C256,414.56,273.546,395.253,281.771,386.201z"/>
		<path fill="#FFCF4D" d="M169.467,319.344c-9.587,4.79-18.423,10.857-26.278,17.988L244.9,449.248
			c5.952,6.549,16.25,6.549,22.202,0l101.711-111.916c-7.855-7.132-16.692-13.199-26.278-17.988L256,414.56L169.467,319.344z"/>
		<path fill="#FFB629" d="M267.102,431.249c-5.953,6.549-16.25,6.549-22.202,0l-92.322-101.585
			c-3.263,2.395-6.398,4.954-9.389,7.669L244.9,449.249c5.952,6.549,16.25,6.549,22.202,0l101.711-111.916
			c-2.992-2.716-6.127-5.274-9.39-7.669L267.102,431.249z"/>
	</g>
	<g>
		<g>
			<path d="M307.393,300.861c21.199-12.383,37.564-32.176,45.515-55.802c0.352,0.009,0.704,0.027,1.056,0.027
				c21.555,0,39.09-17.536,39.09-39.09c0-20.118-15.279-36.73-34.841-38.855V150.19c7.172-7.223,24.638-29.412,21.09-71.552
				c-1.438-17.09-7.749-30.412-18.759-39.597c-14.114-11.775-31.87-13.029-39.427-13.011c-9.321-8.71-42.931-35.781-88.365-22.363
				c-8.786,2.596-17.188,5.987-25.683,10.368c-3.689,1.903-5.137,6.434-3.235,10.122c1.903,3.688,6.434,5.137,10.122,3.235
				c7.644-3.942,15.185-6.989,23.052-9.312c43.537-12.861,74.366,19.332,75.644,20.696c1.584,1.704,3.894,2.577,6.205,2.37
				c0.186-0.019,18.973-1.559,32.148,9.511c7.755,6.515,12.237,16.354,13.321,29.243c2.721,32.335-8.474,50.18-14.563,57.339
				c-14.982-11.636-28.529-35.748-28.677-36.013c-2.622-5.143-10.703-5.055-13.221,0.163
				c-10.992,20.965-31.191,29.292-42.743,32.449c-1.24-16.068-11.486-28.817-12.014-29.463c-2.781-3.58-8.639-3.659-11.509-0.156
				c-31.659,36.693-72.973,36.738-77.572,36.631c-0.926-0.023-1.854-0.176-2.758-0.452c-13.076-4.003-26.035-15.496-34.501-24.295
				c28.068-4.837,38.368-24.237,38.86-25.196c2.689-4.851-1.393-11.285-6.912-10.94c-12.182,0.377-20.802-4.117-26.332-13.714
				c-1.385-2.403-2.403-4.852-3.148-7.088c26.947,1.332,43.469-7.084,59.235-16.663c3.547-2.155,4.675-6.777,2.52-10.323
				c-2.154-3.547-6.776-4.675-10.323-2.52c-15.914,9.67-31.407,17.372-59.926,13.652c-4.543-0.708-8.887,3.37-8.469,7.948
				c0.03,0.455,0.808,11.27,6.777,21.943c4.276,7.648,11.777,16.304,24.622,19.993c-8.468,6.327-19.329,9.333-32.314,8.929
				c-6.125-0.387-10.088,7.311-6.207,12.067c0.966,1.268,23.122,30.016,48.638,39.519v13.433
				c-19.562,2.125-34.841,18.737-34.841,38.855c0,21.554,17.536,39.09,39.09,39.09c0.352,0,0.704-0.018,1.056-0.027
				c7.949,23.626,24.314,43.419,45.514,55.802c-60.573,8.216-107.415,60.264-107.415,123.054v15.61c0,4.149,3.364,7.514,7.514,7.514
				s7.514-3.364,7.514-7.514v-15.61c0-29.3,11.606-55.938,30.458-75.566l96.64,106.337c8.48,9.747,24.885,9.747,33.364,0
				l31.586-34.754c2.791-3.07,2.563-7.822-0.508-10.613c-3.07-2.792-7.822-2.564-10.613,0.507l-31.586,34.754
				c-2.821,3.259-8.3,3.259-11.121,0l-96.636-106.333c4.375-3.459,9.021-6.587,13.899-9.354l82.738,91.04
				c2.826,3.251,8.295,3.25,11.122,0l82.737-91.04c4.878,2.768,9.524,5.896,13.899,9.354l-44.827,49.326
				c-2.791,3.07-2.563,7.822,0.507,10.613c3.063,2.785,7.816,2.571,10.614-0.507l44.83-49.329
				c18.853,19.628,30.458,46.267,30.458,75.566v73.057H355.04v-58.633c0-4.149-3.364-7.514-7.515-7.514
				c-4.149,0-7.514,3.364-7.514,7.514v58.633H171.989v-58.633c0-4.149-3.364-7.514-7.514-7.514s-7.514,3.364-7.514,7.514v58.633
				H112.22v-27.391c0-4.15-3.364-7.514-7.514-7.514s-7.514,3.363-7.514,7.514v34.905c0,4.149,3.364,7.514,7.514,7.514h302.589
				c4.15,0,7.514-3.364,7.514-7.514v-80.571C414.809,361.125,367.966,309.077,307.393,300.861L307.393,300.861z M267.546,333.641
				h-23.092l-4.264-18.889h31.621L267.546,333.641z M378.023,205.996c0,12.331-9.324,22.52-21.293,23.898
				c0.97-5.642,1.48-11.438,1.48-17.353v-30.224C369.459,184.331,378.023,194.178,378.023,205.996z M133.976,205.996
				c0-11.817,8.566-21.665,19.813-23.679v30.224c0,5.914,0.511,11.711,1.48,17.353C143.301,228.515,133.976,218.327,133.976,205.996
				z M168.816,212.541v-56.769c13.328-0.687,47.859-5.381,77.288-34.389c2.658,5.316,5.186,12.789,3.652,20.214
				c-0.482,2.334,0.172,4.759,1.763,6.535c1.591,1.775,3.93,2.683,6.303,2.466c1.588-0.15,35.383-3.68,56.597-31.594
				c6.438,9.703,17.022,23.79,28.765,32.007v61.53c0,48.073-39.111,87.183-87.185,87.183S168.816,260.614,168.816,212.541
				L168.816,212.541z M221.382,314.752h3.401l5.996,26.563l-5.264,28.85l-43.635-48.013
				C194.137,317.377,207.458,314.752,221.382,314.752L221.382,314.752z M256,403.706l-17.761-19.544l6.476-35.494h22.571
				l6.476,35.494L256,403.706z M286.484,370.164l-5.264-28.85l5.995-26.563h3.401c13.924,0,27.245,2.625,39.501,7.399
				L286.484,370.164z"/>
			<path d="M256,260.779c26.662,0,34.723-18.737,35.074-19.588c0.001-0.002,0.002-0.004,0.003-0.006
				c2.124-4.773-1.652-10.532-6.913-10.414c-3.125,0-5.803,1.913-6.93,4.631c-0.379,0.803-5.246,10.377-21.234,10.377
				c-15.983,0-20.853-9.57-21.235-10.377c-1.127-2.718-3.804-4.631-6.929-4.631c-5.261-0.118-9.036,5.642-6.912,10.414
				c0.001,0.001,0.002,0.004,0.003,0.006C221.277,242.042,229.338,260.779,256,260.779z"/>
			<path d="M210.199,176.049c-4.142,0-7.5,3.358-7.5,7.5v21.19c0,4.142,3.358,7.5,7.5,7.5c4.142,0,7.5-3.358,7.5-7.5v-21.19
				C217.699,179.407,214.341,176.049,210.199,176.049z"/>
			<path d="M301.801,212.24c4.143,0,7.5-3.358,7.5-7.5v-21.19c0-4.142-3.357-7.5-7.5-7.5c-4.142,0-7.5,3.358-7.5,7.5v21.19
				C294.301,208.882,297.659,212.24,301.801,212.24z"/>
		</g>
	</g>
</g>
</svg>
