<?xml version="1.0" encoding="utf-8"?>
<!-- Generator: Adobe Illustrator 16.0.0, SVG Export Plug-In . SVG Version: 6.00 Build 0)  -->
<!DOCTYPE svg PUBLIC "-//W3C//DTD SVG 1.1//EN" "http://www.w3.org/Graphics/SVG/1.1/DTD/svg11.dtd">
<svg version="1.1" id="Capa_1" xmlns="http://www.w3.org/2000/svg" xmlns:xlink="http://www.w3.org/1999/xlink" x="0px" y="0px"
	 width="512px" height="512px" viewBox="0 0 512 512" enable-background="new 0 0 512 512" xml:space="preserve">
<path fill="#FFFFFF" d="M403.802,334.499l-30.049-8.823l-65.376-42.701v-9.783c18.928-14.277,31.926-36.101,34.342-61.115
	c9.493-1.528,16.766-9.777,16.766-19.693v-26.905c0-0.104-0.01-0.206-0.016-0.31v-34.082c3.782-2.708,6.182-7.119,6.182-12.067
	v-31.19l45.117-7.685c7.416-1.263,12.747-7.152,13.271-14.655c0.522-7.503-3.941-14.075-11.107-16.354L260.834,0.757
	c-3.174-1.01-6.526-1.009-9.698-0.001L99.037,49.135c-7.167,2.279-11.631,8.851-11.108,16.354c0.332,4.767,2.61,8.877,6.126,11.569
	v40.787h-0.372c-8.565,0-15.533,6.968-15.533,15.533v20.246l-10.027,58.852c-1.733,10.179,6.107,19.496,16.457,19.496h33.949
	c10.327,0,18.194-9.295,16.457-19.497l-10.027-58.851v-20.246c0-8.565-6.968-15.533-15.533-15.533h-0.371V81.481l37.294,6.352
	v31.186c0,4.927,2.389,9.331,6.153,12.043l0.014,34.419v26.902c0,9.917,7.273,18.165,16.766,19.693
	c2.415,25.001,15.399,46.814,34.309,61.092v9.83l-65.362,42.693l-30.025,8.813c-32.129,9.43-54.815,38.927-54.815,73.215v22.353
	c0,4.142,3.357,7.5,7.5,7.5s7.5-3.357,7.5-7.5v-22.353c0-27.023,18.109-51.213,44.04-58.822l27.976-8.213l111.766,66.413
	c2.269,1.349,5.271,1.42,7.662,0l111.772-66.417l27.974,8.212c25.927,7.612,44.036,31.801,44.036,58.822v72.438
	c0,9.291-7.56,16.85-16.851,16.85h-33.057v-32.328c0-4.142-3.356-7.5-7.5-7.5c-4.142,0-7.5,3.357-7.5,7.5v32.328H133.26v-32.328
	c0-4.142-3.357-7.5-7.5-7.5c-4.143,0-7.5,3.357-7.5,7.5v32.328H85.237c-9.291,0-16.85-7.559-16.85-16.85V465.13
	c0-4.142-3.357-7.5-7.5-7.5s-7.5,3.357-7.5,7.5v15.021c0,17.562,14.287,31.849,31.849,31.849h341.527
	c17.563,0,31.85-14.287,31.85-31.849v-72.438C458.612,374.233,436.7,344.158,403.802,334.499L403.802,334.499z M118.528,216.971
	H84.58c-1.049,0-1.849-0.937-1.671-1.978l9.07-53.236h19.15l9.07,53.235C120.376,216.031,119.582,216.971,118.528,216.971z
	 M109.959,133.377v13.381H93.148v-13.381c0-0.295,0.239-0.534,0.534-0.534h15.742C109.72,132.842,109.959,133.082,109.959,133.377z
	 M229.177,373.171l2.985,4.588l-76.569-45.497l48.601-31.745C206.398,326.377,214.922,351.262,229.177,373.171z M229.125,340.796
	c17.653,2.508,36.087,2.51,53.75,0c-3.413,8.398-7.619,16.502-12.624,24.196L256,386.896l-14.251-21.904
	C236.744,357.298,232.538,349.194,229.125,340.796L229.125,340.796z M282.823,373.171c14.255-21.909,22.778-46.794,24.981-72.654
	l48.602,31.744l-76.568,45.498L282.823,373.171z M326.693,133.879h17.777v24.098h-8.824c-4.937,0-8.953-4.016-8.953-8.953V133.879
	L326.693,133.879z M103.583,63.429l152.101-48.38c0.195-0.062,0.405-0.063,0.603,0.001l152.1,48.379
	c0.314,0.1,0.745,0.236,0.69,1.017c-0.056,0.78-0.5,0.855-0.826,0.911l-50.288,8.565l-18.88-2.335
	c-4.108-0.509-7.854,2.413-8.362,6.523c-0.509,4.111,2.412,7.855,6.522,8.363l13.41,1.659v30.748l-189.305-0.007V88.131
	l77.607-9.603c11.304-1.397,22.764-1.397,34.061,0l29.373,3.633c4.109,0.509,7.854-2.412,8.363-6.522
	c0.51-4.111-2.412-7.855-6.521-8.364l-29.373-3.633c-12.518-1.549-25.217-1.549-37.743,0L154.02,73.924l-50.303-8.567
	c-0.326-0.056-0.771-0.131-0.826-0.911C102.837,63.665,103.268,63.528,103.583,63.429L103.583,63.429z M167.511,157.977
	l-0.01-24.098h17.805v15.146c0,4.936-4.016,8.953-8.954,8.953L167.511,157.977L167.511,157.977z M184.018,208.221
	c-0.386-6.107-5.462-10.891-11.555-10.891c-2.729,0-4.949-2.22-4.949-4.948v-19.405h8.838c13.207,0,23.953-10.745,23.953-23.952
	v-15.146h111.388v15.146c0,13.207,10.746,23.952,23.953,23.952h8.838v19.405c0,2.728-2.219,4.948-4.948,4.948
	c-6.093,0-11.169,4.784-11.556,10.892c-2.389,37.869-34.006,67.534-71.981,67.534C218.024,275.756,186.407,246.091,184.018,208.221
	L184.018,208.221z M256,290.755c13.339,0,26.018-3.05,37.378-8.473v4.753c0,12.823-1.729,25.472-5.062,37.672
	c-20.381,3.886-43.424,4.043-64.633,0c-3.331-12.199-5.061-24.848-5.061-37.672c0-0.159-0.022-0.314-0.032-0.471
	c-0.002-0.031,0.001-0.063-0.001-0.094v-4.203C229.958,287.699,242.648,290.755,256,290.755L256,290.755z"/>
<path fill="#FFFFFF" d="M256,245.998c26.662,0,34.723-18.737,35.074-19.588c0.001-0.002,0.002-0.004,0.003-0.006
	c2.124-4.773-1.652-10.533-6.913-10.414c-3.125,0-5.803,1.912-6.93,4.631c-0.379,0.803-5.246,10.377-21.234,10.377
	c-15.983,0-20.853-9.57-21.235-10.377c-1.127-2.719-3.804-4.631-6.929-4.631c-5.261-0.119-9.036,5.642-6.912,10.414
	c0.001,0,0.002,0.004,0.003,0.006C221.277,227.261,229.338,245.998,256,245.998z"/>
<path fill="#FFFFFF" d="M210.199,161.268c-4.142,0-7.5,3.358-7.5,7.5v21.19c0,4.142,3.358,7.5,7.5,7.5c4.142,0,7.5-3.358,7.5-7.5
	v-21.19C217.699,164.626,214.341,161.268,210.199,161.268z"/>
<path fill="#FFFFFF" d="M301.801,197.459c4.143,0,7.5-3.358,7.5-7.5v-21.19c0-4.142-3.357-7.5-7.5-7.5c-4.142,0-7.5,3.358-7.5,7.5
	v21.19C294.301,194.101,297.659,197.459,301.801,197.459z"/>
</svg>
